<svg width="64" height="64" viewBox="0 0 64 64" fill="none" xmlns="http://www.w3.org/2000/svg">
  <rect width="64" height="64" rx="12" fill="#0D0D0D"/>
  <g transform="translate(6, 21) scale(0.38)">
    <path d="M0 12.0077L14.415 21.7499H0V57.9996H14.415V21.7499V0H0V12.0077Z" fill="url(#paint0_linear)"/>
    <path d="M97.3008 14.4999C99.3279 14.4999 100.904 16.0858 100.904 18.1249V26.5076L115.319 36.2497V14.4999C115.319 6.57026 108.788 0 100.904 0H14.6399L36.2624 14.4999H97.526H97.3008Z" fill="url(#paint1_linear)"/>
    <path d="M54.0559 43.5C52.0288 43.5 50.4522 41.914 50.4522 39.875V31.4922L36.0372 21.7501V43.5C36.0372 51.4296 42.569 57.9999 50.4522 57.9999H136.717L115.094 43.5H53.8307H54.0559Z" fill="url(#paint2_linear)"/>
    <defs>
      <linearGradient id="paint0_linear" x1="-9.914" y1="10.386" x2="96.145" y2="10.386" gradientUnits="userSpaceOnUse">
        <stop stop-color="#A7A9AC"/>
        <stop offset="0.009" stop-color="#AAACAF"/>
        <stop offset="0.11" stop-color="#C9CACC"/>
        <stop offset="0.203" stop-color="#DFE0E1"/>
        <stop offset="0.286" stop-color="#ECEDEE"/>
        <stop offset="0.35" stop-color="#F1F2F2"/>
        <stop offset="0.468" stop-color="#EAEBEC"/>
        <stop offset="0.656" stop-color="#D7D8DA"/>
        <stop offset="0.889" stop-color="#B8BABC"/>
        <stop offset="1" stop-color="#A7A9AC"/>
      </linearGradient>
      <linearGradient id="paint1_linear" x1="-9.914" y1="10.386" x2="96.145" y2="10.386" gradientUnits="userSpaceOnUse">
        <stop stop-color="#A7A9AC"/>
        <stop offset="0.009" stop-color="#AAACAF"/>
        <stop offset="0.11" stop-color="#C9CACC"/>
        <stop offset="0.203" stop-color="#DFE0E1"/>
        <stop offset="0.286" stop-color="#ECEDEE"/>
        <stop offset="0.35" stop-color="#F1F2F2"/>
        <stop offset="0.468" stop-color="#EAEBEC"/>
        <stop offset="0.656" stop-color="#D7D8DA"/>
        <stop offset="0.889" stop-color="#B8BABC"/>
        <stop offset="1" stop-color="#A7A9AC"/>
      </linearGradient>
      <linearGradient id="paint2_linear" x1="-9.914" y1="10.386" x2="96.145" y2="10.386" gradientUnits="userSpaceOnUse">
        <stop stop-color="#A7A9AC"/>
        <stop offset="0.009" stop-color="#AAACAF"/>
        <stop offset="0.11" stop-color="#C9CACC"/>
        <stop offset="0.203" stop-color="#DFE0E1"/>
        <stop offset="0.286" stop-color="#ECEDEE"/>
        <stop offset="0.35" stop-color="#F1F2F2"/>
        <stop offset="0.468" stop-color="#EAEBEC"/>
        <stop offset="0.656" stop-color="#D7D8DA"/>
        <stop offset="0.889" stop-color="#B8BABC"/>
        <stop offset="1" stop-color="#A7A9AC"/>
      </linearGradient>
    </defs>
  </g>
</svg>
